<mxfile host="Electron" modified="2025-09-19T19:17:01.055Z" agent="Mozilla/5.0 (Windows NT 10.0; Win64; x64) AppleWebKit/537.36 (KHTML, like Gecko) draw.io/22.1.2 Chrome/114.0.5735.289 Electron/25.9.4 Safari/537.36" etag="VBVWkQR5WSw_jbHBsN4m" version="22.1.2" type="device" pages="9">
  <diagram id="7CbcsJssWQovaxGvvZNb" name="terminology">
    <mxGraphModel dx="989" dy="582" grid="1" gridSize="10" guides="1" tooltips="1" connect="1" arrows="1" fold="1" page="1" pageScale="1" pageWidth="850" pageHeight="1100" math="0" shadow="0">
      <root>
        <mxCell id="0" />
        <mxCell id="1" parent="0" />
        <mxCell id="rCchTwC-92zBf_EcKTqU-1" value="TOP_STATE" style="rounded=1;whiteSpace=wrap;html=1;verticalAlign=top;" vertex="1" parent="1">
          <mxGeometry x="60" y="360" width="580" height="180" as="geometry" />
        </mxCell>
        <mxCell id="84yLyUPyAdhyYhzX-vNR-1" style="edgeStyle=orthogonalEdgeStyle;rounded=0;orthogonalLoop=1;jettySize=auto;html=1;exitX=1;exitY=0.5;exitDx=0;exitDy=0;entryX=0;entryY=0.5;entryDx=0;entryDy=0;" edge="1" parent="1" source="84yLyUPyAdhyYhzX-vNR-3" target="84yLyUPyAdhyYhzX-vNR-8">
          <mxGeometry relative="1" as="geometry" />
        </mxCell>
        <mxCell id="84yLyUPyAdhyYhzX-vNR-2" value="OFF_EVENT" style="edgeLabel;html=1;align=center;verticalAlign=middle;resizable=0;points=[];" vertex="1" connectable="0" parent="84yLyUPyAdhyYhzX-vNR-1">
          <mxGeometry x="-0.2571" y="-1" relative="1" as="geometry">
            <mxPoint x="13" y="-1" as="offset" />
          </mxGeometry>
        </mxCell>
        <mxCell id="84yLyUPyAdhyYhzX-vNR-3" value="ON_STATE" style="rounded=1;whiteSpace=wrap;html=1;verticalAlign=top;" vertex="1" parent="1">
          <mxGeometry x="80" y="400" width="320" height="110" as="geometry" />
        </mxCell>
        <mxCell id="84yLyUPyAdhyYhzX-vNR-4" style="edgeStyle=orthogonalEdgeStyle;rounded=0;orthogonalLoop=1;jettySize=auto;html=1;exitX=1;exitY=0.25;exitDx=0;exitDy=0;entryX=0;entryY=0.25;entryDx=0;entryDy=0;" edge="1" parent="1" source="84yLyUPyAdhyYhzX-vNR-5" target="84yLyUPyAdhyYhzX-vNR-7">
          <mxGeometry relative="1" as="geometry" />
        </mxCell>
        <mxCell id="84yLyUPyAdhyYhzX-vNR-5" value="IDLE_STATE" style="rounded=1;whiteSpace=wrap;html=1;" vertex="1" parent="1">
          <mxGeometry x="100" y="440" width="120" height="40" as="geometry" />
        </mxCell>
        <mxCell id="84yLyUPyAdhyYhzX-vNR-6" style="edgeStyle=orthogonalEdgeStyle;rounded=0;orthogonalLoop=1;jettySize=auto;html=1;exitX=0;exitY=0.75;exitDx=0;exitDy=0;entryX=1;entryY=0.75;entryDx=0;entryDy=0;" edge="1" parent="1" source="84yLyUPyAdhyYhzX-vNR-7" target="84yLyUPyAdhyYhzX-vNR-5">
          <mxGeometry relative="1" as="geometry" />
        </mxCell>
        <mxCell id="84yLyUPyAdhyYhzX-vNR-7" value="RUNNING_STATE" style="rounded=1;whiteSpace=wrap;html=1;" vertex="1" parent="1">
          <mxGeometry x="260" y="440" width="120" height="40" as="geometry" />
        </mxCell>
        <mxCell id="84yLyUPyAdhyYhzX-vNR-8" value="OFF_STATE" style="rounded=1;whiteSpace=wrap;html=1;" vertex="1" parent="1">
          <mxGeometry x="500" y="435" width="120" height="40" as="geometry" />
        </mxCell>
        <mxCell id="84yLyUPyAdhyYhzX-vNR-9" value="" style="ellipse;html=1;shape=startState;fillColor=#000000;strokeColor=#ff0000;" vertex="1" parent="1">
          <mxGeometry x="100" y="400" width="30" height="30" as="geometry" />
        </mxCell>
        <mxCell id="84yLyUPyAdhyYhzX-vNR-10" value="" style="edgeStyle=orthogonalEdgeStyle;html=1;verticalAlign=bottom;endArrow=open;endSize=8;strokeColor=#ff0000;rounded=0;exitX=1;exitY=0.5;exitDx=0;exitDy=0;entryX=0.5;entryY=0;entryDx=0;entryDy=0;" edge="1" source="84yLyUPyAdhyYhzX-vNR-9" parent="1" target="84yLyUPyAdhyYhzX-vNR-5">
          <mxGeometry relative="1" as="geometry">
            <mxPoint x="115" y="490" as="targetPoint" />
          </mxGeometry>
        </mxCell>
        <mxCell id="rCchTwC-92zBf_EcKTqU-2" value="" style="ellipse;html=1;shape=startState;fillColor=#000000;strokeColor=#ff0000;" vertex="1" parent="1">
          <mxGeometry x="180" y="310" width="30" height="30" as="geometry" />
        </mxCell>
        <mxCell id="rCchTwC-92zBf_EcKTqU-3" value="" style="edgeStyle=orthogonalEdgeStyle;html=1;verticalAlign=bottom;endArrow=open;endSize=8;strokeColor=#ff0000;rounded=0;exitX=1;exitY=0.5;exitDx=0;exitDy=0;entryX=0.5;entryY=0;entryDx=0;entryDy=0;" edge="1" parent="1" source="rCchTwC-92zBf_EcKTqU-2" target="84yLyUPyAdhyYhzX-vNR-3">
          <mxGeometry relative="1" as="geometry">
            <mxPoint x="240" y="400" as="targetPoint" />
          </mxGeometry>
        </mxCell>
      </root>
    </mxGraphModel>
  </diagram>
  <diagram id="UDnBACydtRn0vsPXNfzo" name="fsm_vs_hsm">
    <mxGraphModel dx="1839" dy="582" grid="1" gridSize="10" guides="1" tooltips="1" connect="1" arrows="1" fold="1" page="1" pageScale="1" pageWidth="850" pageHeight="1100" math="0" shadow="0">
      <root>
        <mxCell id="0" />
        <mxCell id="1" parent="0" />
        <mxCell id="n_szs7mWw2fdZzyCZhHc-6" style="edgeStyle=orthogonalEdgeStyle;rounded=0;orthogonalLoop=1;jettySize=auto;html=1;exitX=0.5;exitY=0;exitDx=0;exitDy=0;entryX=0.75;entryY=0;entryDx=0;entryDy=0;" parent="1" source="MDyQkTJQHMtsMHos-zCy-2" target="n_szs7mWw2fdZzyCZhHc-4" edge="1">
          <mxGeometry relative="1" as="geometry">
            <mxPoint x="300" y="380" as="targetPoint" />
            <Array as="points">
              <mxPoint x="60" y="360" />
              <mxPoint x="410" y="360" />
            </Array>
          </mxGeometry>
        </mxCell>
        <mxCell id="T8W0TRq4-2JAe6pgyj3d-2" value="OFF_EVENT" style="edgeLabel;html=1;align=center;verticalAlign=middle;resizable=0;points=[];" vertex="1" connectable="0" parent="n_szs7mWw2fdZzyCZhHc-6">
          <mxGeometry x="0.4273" relative="1" as="geometry">
            <mxPoint x="-17" as="offset" />
          </mxGeometry>
        </mxCell>
        <mxCell id="n_szs7mWw2fdZzyCZhHc-7" style="edgeStyle=orthogonalEdgeStyle;rounded=0;orthogonalLoop=1;jettySize=auto;html=1;exitX=1;exitY=0.25;exitDx=0;exitDy=0;entryX=0;entryY=0.25;entryDx=0;entryDy=0;" parent="1" source="MDyQkTJQHMtsMHos-zCy-2" target="MDyQkTJQHMtsMHos-zCy-3" edge="1">
          <mxGeometry relative="1" as="geometry" />
        </mxCell>
        <mxCell id="MDyQkTJQHMtsMHos-zCy-2" value="IDLE_STATE" style="rounded=1;whiteSpace=wrap;html=1;" parent="1" vertex="1">
          <mxGeometry y="400" width="120" height="40" as="geometry" />
        </mxCell>
        <mxCell id="n_szs7mWw2fdZzyCZhHc-5" style="edgeStyle=orthogonalEdgeStyle;rounded=0;orthogonalLoop=1;jettySize=auto;html=1;exitX=0.5;exitY=0;exitDx=0;exitDy=0;entryX=0.5;entryY=0;entryDx=0;entryDy=0;" parent="1" source="MDyQkTJQHMtsMHos-zCy-3" target="n_szs7mWw2fdZzyCZhHc-4" edge="1">
          <mxGeometry relative="1" as="geometry" />
        </mxCell>
        <mxCell id="T8W0TRq4-2JAe6pgyj3d-1" value="OFF_EVENT" style="edgeLabel;html=1;align=center;verticalAlign=middle;resizable=0;points=[];" vertex="1" connectable="0" parent="n_szs7mWw2fdZzyCZhHc-5">
          <mxGeometry x="0.1029" relative="1" as="geometry">
            <mxPoint as="offset" />
          </mxGeometry>
        </mxCell>
        <mxCell id="n_szs7mWw2fdZzyCZhHc-8" style="edgeStyle=orthogonalEdgeStyle;rounded=0;orthogonalLoop=1;jettySize=auto;html=1;exitX=0;exitY=0.75;exitDx=0;exitDy=0;entryX=1;entryY=0.75;entryDx=0;entryDy=0;" parent="1" source="MDyQkTJQHMtsMHos-zCy-3" target="MDyQkTJQHMtsMHos-zCy-2" edge="1">
          <mxGeometry relative="1" as="geometry" />
        </mxCell>
        <mxCell id="MDyQkTJQHMtsMHos-zCy-3" value="RUNNING_STATE" style="rounded=1;whiteSpace=wrap;html=1;" parent="1" vertex="1">
          <mxGeometry x="160" y="400" width="120" height="40" as="geometry" />
        </mxCell>
        <mxCell id="n_szs7mWw2fdZzyCZhHc-4" value="OFF_STATE" style="rounded=1;whiteSpace=wrap;html=1;" parent="1" vertex="1">
          <mxGeometry x="320" y="400" width="120" height="40" as="geometry" />
        </mxCell>
        <mxCell id="n_szs7mWw2fdZzyCZhHc-17" value="&lt;b&gt;&lt;font style=&quot;font-size: 30px;&quot;&gt;FSM&lt;/font&gt;&lt;/b&gt;" style="text;html=1;strokeColor=none;fillColor=none;align=center;verticalAlign=middle;whiteSpace=wrap;rounded=0;" parent="1" vertex="1">
          <mxGeometry x="180" y="320" width="80" height="40" as="geometry" />
        </mxCell>
        <mxCell id="dCPpcwt0Dm-k-H56rYxH-1" value="&lt;b&gt;&lt;font style=&quot;font-size: 30px;&quot;&gt;HSM&lt;/font&gt;&lt;/b&gt;" style="text;html=1;strokeColor=none;fillColor=none;align=center;verticalAlign=middle;whiteSpace=wrap;rounded=0;" parent="1" vertex="1">
          <mxGeometry x="180" y="480" width="80" height="40" as="geometry" />
        </mxCell>
        <mxCell id="4u0E85idhSbAvxxvhlba-1" value="TOP_STATE" style="rounded=1;whiteSpace=wrap;html=1;verticalAlign=top;" vertex="1" parent="1">
          <mxGeometry x="-70" y="520" width="580" height="180" as="geometry" />
        </mxCell>
        <mxCell id="4u0E85idhSbAvxxvhlba-2" style="edgeStyle=orthogonalEdgeStyle;rounded=0;orthogonalLoop=1;jettySize=auto;html=1;exitX=1;exitY=0.5;exitDx=0;exitDy=0;entryX=0;entryY=0.5;entryDx=0;entryDy=0;" edge="1" parent="1" source="4u0E85idhSbAvxxvhlba-4" target="4u0E85idhSbAvxxvhlba-9">
          <mxGeometry relative="1" as="geometry" />
        </mxCell>
        <mxCell id="4u0E85idhSbAvxxvhlba-3" value="OFF_EVENT" style="edgeLabel;html=1;align=center;verticalAlign=middle;resizable=0;points=[];" vertex="1" connectable="0" parent="4u0E85idhSbAvxxvhlba-2">
          <mxGeometry x="-0.2571" y="-1" relative="1" as="geometry">
            <mxPoint x="13" y="-1" as="offset" />
          </mxGeometry>
        </mxCell>
        <mxCell id="4u0E85idhSbAvxxvhlba-4" value="ON_STATE" style="rounded=1;whiteSpace=wrap;html=1;verticalAlign=top;" vertex="1" parent="1">
          <mxGeometry x="-50" y="560" width="320" height="110" as="geometry" />
        </mxCell>
        <mxCell id="4u0E85idhSbAvxxvhlba-5" style="edgeStyle=orthogonalEdgeStyle;rounded=0;orthogonalLoop=1;jettySize=auto;html=1;exitX=1;exitY=0.25;exitDx=0;exitDy=0;entryX=0;entryY=0.25;entryDx=0;entryDy=0;" edge="1" parent="1" source="4u0E85idhSbAvxxvhlba-6" target="4u0E85idhSbAvxxvhlba-8">
          <mxGeometry relative="1" as="geometry" />
        </mxCell>
        <mxCell id="4u0E85idhSbAvxxvhlba-6" value="IDLE_STATE" style="rounded=1;whiteSpace=wrap;html=1;" vertex="1" parent="1">
          <mxGeometry x="-30" y="600" width="120" height="40" as="geometry" />
        </mxCell>
        <mxCell id="4u0E85idhSbAvxxvhlba-7" style="edgeStyle=orthogonalEdgeStyle;rounded=0;orthogonalLoop=1;jettySize=auto;html=1;exitX=0;exitY=0.75;exitDx=0;exitDy=0;entryX=1;entryY=0.75;entryDx=0;entryDy=0;" edge="1" parent="1" source="4u0E85idhSbAvxxvhlba-8" target="4u0E85idhSbAvxxvhlba-6">
          <mxGeometry relative="1" as="geometry" />
        </mxCell>
        <mxCell id="4u0E85idhSbAvxxvhlba-8" value="RUNNING_STATE" style="rounded=1;whiteSpace=wrap;html=1;" vertex="1" parent="1">
          <mxGeometry x="130" y="600" width="120" height="40" as="geometry" />
        </mxCell>
        <mxCell id="4u0E85idhSbAvxxvhlba-9" value="OFF_STATE" style="rounded=1;whiteSpace=wrap;html=1;" vertex="1" parent="1">
          <mxGeometry x="370" y="595" width="120" height="40" as="geometry" />
        </mxCell>
        <mxCell id="4u0E85idhSbAvxxvhlba-10" value="" style="ellipse;html=1;shape=startState;fillColor=#000000;strokeColor=#ff0000;" vertex="1" parent="1">
          <mxGeometry x="-30" y="560" width="30" height="30" as="geometry" />
        </mxCell>
        <mxCell id="4u0E85idhSbAvxxvhlba-11" value="" style="edgeStyle=orthogonalEdgeStyle;html=1;verticalAlign=bottom;endArrow=open;endSize=8;strokeColor=#ff0000;rounded=0;exitX=1;exitY=0.5;exitDx=0;exitDy=0;entryX=0.5;entryY=0;entryDx=0;entryDy=0;" edge="1" parent="1" source="4u0E85idhSbAvxxvhlba-10" target="4u0E85idhSbAvxxvhlba-6">
          <mxGeometry relative="1" as="geometry">
            <mxPoint x="-15" y="650" as="targetPoint" />
          </mxGeometry>
        </mxCell>
        <mxCell id="4u0E85idhSbAvxxvhlba-12" value="" style="ellipse;html=1;shape=startState;fillColor=#000000;strokeColor=#ff0000;" vertex="1" parent="1">
          <mxGeometry x="50" y="480" width="30" height="30" as="geometry" />
        </mxCell>
        <mxCell id="4u0E85idhSbAvxxvhlba-13" value="" style="edgeStyle=orthogonalEdgeStyle;html=1;verticalAlign=bottom;endArrow=open;endSize=8;strokeColor=#ff0000;rounded=0;exitX=1;exitY=0.5;exitDx=0;exitDy=0;entryX=0.5;entryY=0;entryDx=0;entryDy=0;" edge="1" parent="1" source="4u0E85idhSbAvxxvhlba-12" target="4u0E85idhSbAvxxvhlba-4">
          <mxGeometry relative="1" as="geometry">
            <mxPoint x="110" y="560" as="targetPoint" />
          </mxGeometry>
        </mxCell>
      </root>
    </mxGraphModel>
  </diagram>
  <diagram id="xkgPUXDjYAsXT0Xu8Odn" name="state_representation_state_reuse">
    <mxGraphModel dx="989" dy="582" grid="1" gridSize="10" guides="1" tooltips="1" connect="1" arrows="1" fold="1" page="1" pageScale="1" pageWidth="850" pageHeight="1100" math="0" shadow="0">
      <root>
        <mxCell id="0" />
        <mxCell id="1" parent="0" />
        <mxCell id="2CA0-e9FA1F4YvHUPgcl-1" value="struct ecu_hsm" style="rounded=0;whiteSpace=wrap;html=1;" vertex="1" parent="1">
          <mxGeometry x="160" y="240" width="120" height="80" as="geometry" />
        </mxCell>
        <mxCell id="2CA0-e9FA1F4YvHUPgcl-2" value="" style="endArrow=none;html=1;endSize=12;startArrow=diamondThin;startSize=14;startFill=1;edgeStyle=orthogonalEdgeStyle;align=left;verticalAlign=bottom;rounded=0;exitX=0.5;exitY=1;exitDx=0;exitDy=0;endFill=0;entryX=0.5;entryY=0;entryDx=0;entryDy=0;" edge="1" parent="1" source="2CA0-e9FA1F4YvHUPgcl-3" target="2CA0-e9FA1F4YvHUPgcl-1">
          <mxGeometry x="-1" y="3" relative="1" as="geometry">
            <mxPoint x="290" y="340" as="sourcePoint" />
            <mxPoint x="480" y="200" as="targetPoint" />
          </mxGeometry>
        </mxCell>
        <mxCell id="2CA0-e9FA1F4YvHUPgcl-3" value="struct app_hsm" style="rounded=0;whiteSpace=wrap;html=1;" vertex="1" parent="1">
          <mxGeometry x="160" y="80" width="120" height="80" as="geometry" />
        </mxCell>
        <mxCell id="2CA0-e9FA1F4YvHUPgcl-4" value="" style="endArrow=none;html=1;endSize=12;startArrow=diamondThin;startSize=14;startFill=0;edgeStyle=orthogonalEdgeStyle;align=left;verticalAlign=bottom;rounded=0;exitX=0.5;exitY=1;exitDx=0;exitDy=0;endFill=0;entryX=0;entryY=0.5;entryDx=0;entryDy=0;" edge="1" parent="1" source="2CA0-e9FA1F4YvHUPgcl-1" target="2CA0-e9FA1F4YvHUPgcl-5">
          <mxGeometry x="-1" y="3" relative="1" as="geometry">
            <mxPoint x="190" y="239.76" as="sourcePoint" />
            <mxPoint x="280" y="240" as="targetPoint" />
          </mxGeometry>
        </mxCell>
        <mxCell id="2CA0-e9FA1F4YvHUPgcl-5" value="struct ecu_hsm_state" style="html=1;whiteSpace=wrap;" vertex="1" parent="1">
          <mxGeometry x="240" y="360" width="160" height="80" as="geometry" />
        </mxCell>
        <mxCell id="2CA0-e9FA1F4YvHUPgcl-6" value="struct ecu_hsm" style="rounded=0;whiteSpace=wrap;html=1;" vertex="1" parent="1">
          <mxGeometry x="360" y="240" width="120" height="80" as="geometry" />
        </mxCell>
        <mxCell id="2CA0-e9FA1F4YvHUPgcl-7" value="" style="endArrow=none;html=1;endSize=12;startArrow=diamondThin;startSize=14;startFill=1;edgeStyle=orthogonalEdgeStyle;align=left;verticalAlign=bottom;rounded=0;exitX=0.5;exitY=1;exitDx=0;exitDy=0;endFill=0;entryX=0.5;entryY=0;entryDx=0;entryDy=0;" edge="1" parent="1" source="2CA0-e9FA1F4YvHUPgcl-8" target="2CA0-e9FA1F4YvHUPgcl-6">
          <mxGeometry x="-1" y="3" relative="1" as="geometry">
            <mxPoint x="490" y="340" as="sourcePoint" />
            <mxPoint x="680" y="200" as="targetPoint" />
          </mxGeometry>
        </mxCell>
        <mxCell id="2CA0-e9FA1F4YvHUPgcl-8" value="struct app_hsm" style="rounded=0;whiteSpace=wrap;html=1;" vertex="1" parent="1">
          <mxGeometry x="360" y="80" width="120" height="80" as="geometry" />
        </mxCell>
        <mxCell id="2CA0-e9FA1F4YvHUPgcl-9" value="" style="endArrow=none;html=1;endSize=12;startArrow=diamondThin;startSize=14;startFill=0;edgeStyle=orthogonalEdgeStyle;align=left;verticalAlign=bottom;rounded=0;exitX=0.5;exitY=1;exitDx=0;exitDy=0;endFill=0;entryX=1;entryY=0.5;entryDx=0;entryDy=0;" edge="1" parent="1" source="2CA0-e9FA1F4YvHUPgcl-6" target="2CA0-e9FA1F4YvHUPgcl-5">
          <mxGeometry x="-1" y="3" relative="1" as="geometry">
            <mxPoint x="530" y="330" as="sourcePoint" />
            <mxPoint x="550" y="450" as="targetPoint" />
          </mxGeometry>
        </mxCell>
      </root>
    </mxGraphModel>
  </diagram>
  <diagram id="xNm9HpFlcDjnbGJ4te1f" name="ECU_HSM_GET_CONTEXT">
    <mxGraphModel dx="1687" dy="993" grid="1" gridSize="10" guides="1" tooltips="1" connect="1" arrows="1" fold="1" page="1" pageScale="1" pageWidth="850" pageHeight="1100" math="0" shadow="0">
      <root>
        <mxCell id="0" />
        <mxCell id="1" parent="0" />
        <mxCell id="i02nGJkKDIbHS4gA0CUI-1" value="&lt;font style=&quot;font-size: 20px;&quot;&gt;ECU_HSM_GET_CONTEXT(ecu_hsm_ptr_, type_, member_)&lt;/font&gt;" style="rounded=1;whiteSpace=wrap;html=1;" vertex="1" parent="1">
          <mxGeometry x="120" y="40" width="560" height="80" as="geometry" />
        </mxCell>
        <mxCell id="i02nGJkKDIbHS4gA0CUI-2" value="&lt;blockquote style=&quot;margin: 0 0 0 40px; border: none; padding: 0px;&quot;&gt;&lt;font style=&quot;font-size: 16px;&quot;&gt;struct app_hsm&amp;nbsp;&lt;br&gt;&lt;/font&gt;&lt;font style=&quot;font-size: 16px;&quot;&gt;&lt;span style=&quot;&quot;&gt;{&lt;br&gt;&lt;/span&gt;&lt;/font&gt;&lt;font style=&quot;font-size: 16px;&quot;&gt;&lt;span style=&quot;&quot;&gt;&lt;span style=&quot;white-space: pre;&quot;&gt;&#x9;&lt;/span&gt;int app_data1;&lt;/span&gt;&lt;/font&gt;&lt;font style=&quot;font-size: 16px;&quot;&gt;&lt;span style=&quot;&quot;&gt;&lt;br&gt;&lt;/span&gt;&lt;/font&gt;&lt;font style=&quot;font-size: 16px;&quot;&gt;&lt;span style=&quot;&quot;&gt;&lt;span style=&quot;white-space: pre;&quot;&gt; &lt;span style=&quot;white-space: pre;&quot;&gt; &lt;span style=&quot;white-space: pre;&quot;&gt; &lt;span style=&quot;white-space: pre;&quot;&gt;&#x9;&lt;/span&gt;&lt;/span&gt;&lt;/span&gt;&lt;/span&gt;struct ecu_hsm hsm_member;&lt;br&gt;&lt;/span&gt;&lt;/font&gt;&lt;font style=&quot;font-size: 16px;&quot;&gt;&lt;span style=&quot;&quot;&gt;&lt;span style=&quot;white-space: pre;&quot;&gt; &lt;span style=&quot;white-space: pre;&quot;&gt; &lt;span style=&quot;white-space: pre;&quot;&gt; &lt;span style=&quot;white-space: pre;&quot;&gt;&#x9;&lt;/span&gt;&lt;/span&gt;&lt;/span&gt;&lt;/span&gt;int app_data2;&lt;br&gt;&lt;/span&gt;&lt;/font&gt;&lt;font style=&quot;font-size: 16px;&quot;&gt;&lt;span style=&quot;&quot;&gt;};&lt;/span&gt;&lt;/font&gt;&lt;/blockquote&gt;" style="rounded=1;whiteSpace=wrap;html=1;align=left;" vertex="1" parent="1">
          <mxGeometry x="240" y="240" width="320" height="200" as="geometry" />
        </mxCell>
        <mxCell id="i02nGJkKDIbHS4gA0CUI-3" value="&lt;blockquote style=&quot;margin: 0 0 0 40px; border: none; padding: 0px;&quot;&gt;&lt;font style=&quot;font-size: 16px;&quot;&gt;static void on_state_on_entry(struct ecu_hsm *hsm)&lt;/font&gt;&lt;/blockquote&gt;" style="rounded=1;whiteSpace=wrap;html=1;align=center;" vertex="1" parent="1">
          <mxGeometry x="120" y="520" width="560" height="40" as="geometry" />
        </mxCell>
        <mxCell id="i02nGJkKDIbHS4gA0CUI-4" style="edgeStyle=orthogonalEdgeStyle;rounded=0;orthogonalLoop=1;jettySize=auto;html=1;strokeWidth=1;entryX=0.75;entryY=0.75;entryDx=0;entryDy=0;entryPerimeter=0;" edge="1" parent="1" target="i02nGJkKDIbHS4gA0CUI-1">
          <mxGeometry relative="1" as="geometry">
            <mxPoint x="540" y="160" as="targetPoint" />
            <mxPoint x="350" y="277" as="sourcePoint" />
            <Array as="points">
              <mxPoint x="350" y="200" />
              <mxPoint x="540" y="200" />
            </Array>
          </mxGeometry>
        </mxCell>
        <mxCell id="i02nGJkKDIbHS4gA0CUI-5" value="" style="endArrow=classic;html=1;rounded=0;strokeWidth=1;entryX=0.893;entryY=0.75;entryDx=0;entryDy=0;entryPerimeter=0;" edge="1" parent="1" target="i02nGJkKDIbHS4gA0CUI-1">
          <mxGeometry width="50" height="50" relative="1" as="geometry">
            <mxPoint x="536" y="350" as="sourcePoint" />
            <mxPoint x="580" y="99" as="targetPoint" />
            <Array as="points">
              <mxPoint x="620" y="350" />
            </Array>
          </mxGeometry>
        </mxCell>
        <mxCell id="i02nGJkKDIbHS4gA0CUI-6" value="" style="endArrow=classic;html=1;rounded=0;strokeWidth=1;" edge="1" parent="1">
          <mxGeometry width="50" height="50" relative="1" as="geometry">
            <mxPoint x="550" y="532" as="sourcePoint" />
            <mxPoint x="450" y="100" as="targetPoint" />
            <Array as="points">
              <mxPoint x="550" y="480" />
              <mxPoint x="200" y="480" />
              <mxPoint x="200" y="320" />
              <mxPoint x="200" y="160" />
              <mxPoint x="450" y="160" />
            </Array>
          </mxGeometry>
        </mxCell>
      </root>
    </mxGraphModel>
  </diagram>
  <diagram id="SYBYPVpohlGDk4NYawn0" name="event_propagation">
    <mxGraphModel dx="1839" dy="582" grid="1" gridSize="10" guides="1" tooltips="1" connect="1" arrows="1" fold="1" page="1" pageScale="1" pageWidth="850" pageHeight="1100" math="0" shadow="0">
      <root>
        <mxCell id="0" />
        <mxCell id="1" parent="0" />
        <mxCell id="jPgtZzKGtFZwbuq3OYJ8-2" value="ECU_HSM_TOP_STATE" style="rounded=1;whiteSpace=wrap;html=1;verticalAlign=top;" vertex="1" parent="1">
          <mxGeometry x="-60" y="380" width="580" height="320" as="geometry" />
        </mxCell>
        <mxCell id="jPgtZzKGtFZwbuq3OYJ8-19" style="edgeStyle=orthogonalEdgeStyle;rounded=0;orthogonalLoop=1;jettySize=auto;html=1;entryX=0;entryY=0.5;entryDx=0;entryDy=0;" edge="1" parent="1" source="jPgtZzKGtFZwbuq3OYJ8-5" target="jPgtZzKGtFZwbuq3OYJ8-10">
          <mxGeometry relative="1" as="geometry" />
        </mxCell>
        <mxCell id="jPgtZzKGtFZwbuq3OYJ8-20" value="EVENT_A" style="edgeLabel;html=1;align=center;verticalAlign=middle;resizable=0;points=[];" vertex="1" connectable="0" parent="jPgtZzKGtFZwbuq3OYJ8-19">
          <mxGeometry x="0.2062" y="-4" relative="1" as="geometry">
            <mxPoint x="-10" y="-4" as="offset" />
          </mxGeometry>
        </mxCell>
        <mxCell id="jPgtZzKGtFZwbuq3OYJ8-5" value="S" style="rounded=1;whiteSpace=wrap;html=1;verticalAlign=top;" vertex="1" parent="1">
          <mxGeometry x="-40" y="435" width="320" height="230" as="geometry" />
        </mxCell>
        <mxCell id="jPgtZzKGtFZwbuq3OYJ8-10" value="S2" style="rounded=1;whiteSpace=wrap;html=1;" vertex="1" parent="1">
          <mxGeometry x="380" y="502.5" width="120" height="95" as="geometry" />
        </mxCell>
        <mxCell id="jPgtZzKGtFZwbuq3OYJ8-15" value="S1" style="rounded=1;whiteSpace=wrap;html=1;verticalAlign=top;" vertex="1" parent="1">
          <mxGeometry x="10" y="475" width="220" height="150" as="geometry" />
        </mxCell>
        <mxCell id="jPgtZzKGtFZwbuq3OYJ8-16" value="S11" style="rounded=1;whiteSpace=wrap;html=1;verticalAlign=top;" vertex="1" parent="1">
          <mxGeometry x="75" y="515" width="90" height="70" as="geometry" />
        </mxCell>
      </root>
    </mxGraphModel>
  </diagram>
  <diagram id="L17Kms-h8-3bLydCbQww" name="state_transitions">
    <mxGraphModel dx="956" dy="563" grid="1" gridSize="10" guides="1" tooltips="1" connect="1" arrows="1" fold="1" page="1" pageScale="1" pageWidth="850" pageHeight="1100" math="0" shadow="0">
      <root>
        <mxCell id="0" />
        <mxCell id="1" parent="0" />
        <mxCell id="DpT0aHqot026XpXUnV0s-1" value="ECU_HSM_TOP_STATE" style="rounded=1;whiteSpace=wrap;html=1;verticalAlign=top;" vertex="1" parent="1">
          <mxGeometry x="60" y="520" width="670" height="300" as="geometry" />
        </mxCell>
        <mxCell id="_mavZvxgoYS4nHO8Av1L-1" style="edgeStyle=orthogonalEdgeStyle;rounded=0;orthogonalLoop=1;jettySize=auto;html=1;exitX=1.001;exitY=0.632;exitDx=0;exitDy=0;entryX=0;entryY=0.75;entryDx=0;entryDy=0;exitPerimeter=0;" edge="1" parent="1" source="_mavZvxgoYS4nHO8Av1L-3" target="_mavZvxgoYS4nHO8Av1L-10">
          <mxGeometry relative="1" as="geometry">
            <mxPoint x="650" y="732.5" as="targetPoint" />
          </mxGeometry>
        </mxCell>
        <mxCell id="_mavZvxgoYS4nHO8Av1L-2" value="EVENT_G" style="edgeLabel;html=1;align=center;verticalAlign=middle;resizable=0;points=[];" vertex="1" connectable="0" parent="_mavZvxgoYS4nHO8Av1L-1">
          <mxGeometry x="0.0236" y="3" relative="1" as="geometry">
            <mxPoint x="-1" y="2" as="offset" />
          </mxGeometry>
        </mxCell>
        <mxCell id="DpT0aHqot026XpXUnV0s-5" style="edgeStyle=orthogonalEdgeStyle;rounded=0;orthogonalLoop=1;jettySize=auto;html=1;exitX=0.58;exitY=0.004;exitDx=0;exitDy=0;exitPerimeter=0;entryX=0.848;entryY=0.001;entryDx=0;entryDy=0;entryPerimeter=0;" edge="1" parent="1" source="_mavZvxgoYS4nHO8Av1L-3" target="_mavZvxgoYS4nHO8Av1L-3">
          <mxGeometry relative="1" as="geometry">
            <mxPoint x="420" y="580" as="targetPoint" />
            <Array as="points">
              <mxPoint x="340" y="621" />
              <mxPoint x="340" y="580" />
              <mxPoint x="419" y="580" />
            </Array>
          </mxGeometry>
        </mxCell>
        <mxCell id="DpT0aHqot026XpXUnV0s-6" value="EVENT_E" style="edgeLabel;html=1;align=center;verticalAlign=middle;resizable=0;points=[];" vertex="1" connectable="0" parent="DpT0aHqot026XpXUnV0s-5">
          <mxGeometry x="0.1221" relative="1" as="geometry">
            <mxPoint x="3" as="offset" />
          </mxGeometry>
        </mxCell>
        <mxCell id="_mavZvxgoYS4nHO8Av1L-3" value="S" style="rounded=1;whiteSpace=wrap;html=1;verticalAlign=top;" vertex="1" parent="1">
          <mxGeometry x="80" y="620" width="400" height="180" as="geometry" />
        </mxCell>
        <mxCell id="_mavZvxgoYS4nHO8Av1L-4" style="edgeStyle=orthogonalEdgeStyle;rounded=0;orthogonalLoop=1;jettySize=auto;html=1;exitX=1;exitY=0.25;exitDx=0;exitDy=0;entryX=0;entryY=0.25;entryDx=0;entryDy=0;" edge="1" parent="1" source="_mavZvxgoYS4nHO8Av1L-6" target="_mavZvxgoYS4nHO8Av1L-9">
          <mxGeometry relative="1" as="geometry" />
        </mxCell>
        <mxCell id="_mavZvxgoYS4nHO8Av1L-5" value="EVENT_A" style="edgeLabel;html=1;align=center;verticalAlign=middle;resizable=0;points=[];" vertex="1" connectable="0" parent="_mavZvxgoYS4nHO8Av1L-4">
          <mxGeometry x="-0.02" y="3" relative="1" as="geometry">
            <mxPoint y="2" as="offset" />
          </mxGeometry>
        </mxCell>
        <mxCell id="_mavZvxgoYS4nHO8Av1L-6" value="S1" style="rounded=1;whiteSpace=wrap;html=1;verticalAlign=top;" vertex="1" parent="1">
          <mxGeometry x="100" y="690" width="120" height="70" as="geometry" />
        </mxCell>
        <mxCell id="_mavZvxgoYS4nHO8Av1L-7" style="edgeStyle=orthogonalEdgeStyle;rounded=0;orthogonalLoop=1;jettySize=auto;html=1;exitX=0;exitY=0.75;exitDx=0;exitDy=0;entryX=1;entryY=0.75;entryDx=0;entryDy=0;" edge="1" parent="1" source="_mavZvxgoYS4nHO8Av1L-9" target="_mavZvxgoYS4nHO8Av1L-6">
          <mxGeometry relative="1" as="geometry" />
        </mxCell>
        <mxCell id="_mavZvxgoYS4nHO8Av1L-8" value="EVENT_B" style="edgeLabel;html=1;align=center;verticalAlign=middle;resizable=0;points=[];" vertex="1" connectable="0" parent="_mavZvxgoYS4nHO8Av1L-7">
          <mxGeometry x="0.0314" y="-3" relative="1" as="geometry">
            <mxPoint x="1" y="3" as="offset" />
          </mxGeometry>
        </mxCell>
        <mxCell id="_mavZvxgoYS4nHO8Av1L-9" value="S12" style="rounded=1;whiteSpace=wrap;html=1;verticalAlign=top;" vertex="1" parent="1">
          <mxGeometry x="330" y="690" width="120" height="70" as="geometry" />
        </mxCell>
        <mxCell id="_mavZvxgoYS4nHO8Av1L-10" value="S2" style="rounded=1;whiteSpace=wrap;html=1;verticalAlign=top;" vertex="1" parent="1">
          <mxGeometry x="590" y="661.25" width="120" height="97.5" as="geometry" />
        </mxCell>
        <mxCell id="_mavZvxgoYS4nHO8Av1L-11" value="" style="ellipse;html=1;shape=startState;fillColor=#000000;strokeColor=#ff0000;" vertex="1" parent="1">
          <mxGeometry x="120" y="640" width="30" height="30" as="geometry" />
        </mxCell>
        <mxCell id="_mavZvxgoYS4nHO8Av1L-12" value="" style="edgeStyle=orthogonalEdgeStyle;html=1;verticalAlign=bottom;endArrow=open;endSize=8;strokeColor=#ff0000;rounded=0;exitX=1;exitY=0.5;exitDx=0;exitDy=0;entryX=0.5;entryY=0;entryDx=0;entryDy=0;" edge="1" parent="1" source="_mavZvxgoYS4nHO8Av1L-11" target="_mavZvxgoYS4nHO8Av1L-6">
          <mxGeometry relative="1" as="geometry">
            <mxPoint x="-50" y="490" as="targetPoint" />
          </mxGeometry>
        </mxCell>
        <mxCell id="_mavZvxgoYS4nHO8Av1L-13" style="edgeStyle=orthogonalEdgeStyle;rounded=0;orthogonalLoop=1;jettySize=auto;html=1;exitX=0;exitY=0.25;exitDx=0;exitDy=0;entryX=1.002;entryY=0.367;entryDx=0;entryDy=0;entryPerimeter=0;" edge="1" parent="1" source="_mavZvxgoYS4nHO8Av1L-10" target="_mavZvxgoYS4nHO8Av1L-3">
          <mxGeometry relative="1" as="geometry" />
        </mxCell>
        <mxCell id="_mavZvxgoYS4nHO8Av1L-14" value="EVENT_F" style="edgeLabel;html=1;align=center;verticalAlign=middle;resizable=0;points=[];" vertex="1" connectable="0" parent="_mavZvxgoYS4nHO8Av1L-13">
          <mxGeometry x="-0.0924" y="-1" relative="1" as="geometry">
            <mxPoint x="-5" y="1" as="offset" />
          </mxGeometry>
        </mxCell>
        <mxCell id="E_K772dbp4TekbwDVaDj-3" value="" style="endArrow=classic;html=1;rounded=0;exitX=0.25;exitY=1;exitDx=0;exitDy=0;" edge="1" parent="1" source="_mavZvxgoYS4nHO8Av1L-6">
          <mxGeometry width="50" height="50" relative="1" as="geometry">
            <mxPoint x="200" y="790" as="sourcePoint" />
            <mxPoint x="130" y="800" as="targetPoint" />
          </mxGeometry>
        </mxCell>
        <mxCell id="E_K772dbp4TekbwDVaDj-6" value="EVENT_D" style="edgeLabel;html=1;align=center;verticalAlign=middle;resizable=0;points=[];" vertex="1" connectable="0" parent="E_K772dbp4TekbwDVaDj-3">
          <mxGeometry x="-0.115" relative="1" as="geometry">
            <mxPoint x="-7" y="2" as="offset" />
          </mxGeometry>
        </mxCell>
        <mxCell id="E_K772dbp4TekbwDVaDj-4" value="" style="endArrow=classic;html=1;rounded=0;entryX=0.75;entryY=1;entryDx=0;entryDy=0;" edge="1" parent="1" target="_mavZvxgoYS4nHO8Av1L-6">
          <mxGeometry width="50" height="50" relative="1" as="geometry">
            <mxPoint x="190" y="800" as="sourcePoint" />
            <mxPoint x="250" y="740" as="targetPoint" />
          </mxGeometry>
        </mxCell>
        <mxCell id="E_K772dbp4TekbwDVaDj-5" value="EVENT_C" style="edgeLabel;html=1;align=center;verticalAlign=middle;resizable=0;points=[];" vertex="1" connectable="0" parent="E_K772dbp4TekbwDVaDj-4">
          <mxGeometry x="0.0215" y="-1" relative="1" as="geometry">
            <mxPoint x="4" as="offset" />
          </mxGeometry>
        </mxCell>
      </root>
    </mxGraphModel>
  </diagram>
  <diagram id="A-0wVei1YuCR_4Z6cKEd" name="example">
    <mxGraphModel dx="869" dy="512" grid="1" gridSize="10" guides="1" tooltips="1" connect="1" arrows="1" fold="1" page="1" pageScale="1" pageWidth="850" pageHeight="1100" math="0" shadow="0">
      <root>
        <mxCell id="0" />
        <mxCell id="1" parent="0" />
        <mxCell id="k9GyUz0--Q45pM5BPgDd-1" value="ECU_HSM_TOP_STATE" style="rounded=1;whiteSpace=wrap;html=1;verticalAlign=top;" vertex="1" parent="1">
          <mxGeometry x="60" y="560" width="710" height="270" as="geometry" />
        </mxCell>
        <mxCell id="k9GyUz0--Q45pM5BPgDd-2" style="edgeStyle=orthogonalEdgeStyle;rounded=0;orthogonalLoop=1;jettySize=auto;html=1;exitX=1.001;exitY=0.632;exitDx=0;exitDy=0;entryX=0;entryY=0.75;entryDx=0;entryDy=0;exitPerimeter=0;" edge="1" parent="1" source="k9GyUz0--Q45pM5BPgDd-4" target="k9GyUz0--Q45pM5BPgDd-12">
          <mxGeometry relative="1" as="geometry">
            <mxPoint x="650" y="732.5" as="targetPoint" />
          </mxGeometry>
        </mxCell>
        <mxCell id="k9GyUz0--Q45pM5BPgDd-3" value="DISCONNECTED_EVENT" style="edgeLabel;html=1;align=center;verticalAlign=middle;resizable=0;points=[];" vertex="1" connectable="0" parent="k9GyUz0--Q45pM5BPgDd-2">
          <mxGeometry x="0.0236" y="3" relative="1" as="geometry">
            <mxPoint x="-5" y="2" as="offset" />
          </mxGeometry>
        </mxCell>
        <mxCell id="k9GyUz0--Q45pM5BPgDd-4" value="CONNECTED_STATE" style="rounded=1;whiteSpace=wrap;html=1;verticalAlign=top;" vertex="1" parent="1">
          <mxGeometry x="80" y="620" width="330" height="190" as="geometry" />
        </mxCell>
        <mxCell id="k9GyUz0--Q45pM5BPgDd-5" style="edgeStyle=orthogonalEdgeStyle;rounded=0;orthogonalLoop=1;jettySize=auto;html=1;exitX=0.5;exitY=0;exitDx=0;exitDy=0;entryX=0;entryY=0.5;entryDx=0;entryDy=0;" edge="1" parent="1" source="k9GyUz0--Q45pM5BPgDd-6" target="c1uVocq7qhYfZBKI5QJU-1">
          <mxGeometry relative="1" as="geometry">
            <mxPoint x="270" y="680" as="targetPoint" />
            <Array as="points">
              <mxPoint x="160" y="680" />
            </Array>
          </mxGeometry>
        </mxCell>
        <mxCell id="k9GyUz0--Q45pM5BPgDd-13" value="KEYPRESS_EVENT" style="edgeLabel;html=1;align=center;verticalAlign=middle;resizable=0;points=[];" vertex="1" connectable="0" parent="k9GyUz0--Q45pM5BPgDd-5">
          <mxGeometry x="-0.02" y="3" relative="1" as="geometry">
            <mxPoint x="3" y="-7" as="offset" />
          </mxGeometry>
        </mxCell>
        <mxCell id="k9GyUz0--Q45pM5BPgDd-6" value="DEFAULT_STATE" style="rounded=1;whiteSpace=wrap;html=1;verticalAlign=top;" vertex="1" parent="1">
          <mxGeometry x="100" y="700" width="120" height="70" as="geometry" />
        </mxCell>
        <mxCell id="k9GyUz0--Q45pM5BPgDd-7" style="edgeStyle=orthogonalEdgeStyle;rounded=0;orthogonalLoop=1;jettySize=auto;html=1;exitX=0.5;exitY=1;exitDx=0;exitDy=0;entryX=1;entryY=0.5;entryDx=0;entryDy=0;" edge="1" parent="1" source="k9GyUz0--Q45pM5BPgDd-8" target="c1uVocq7qhYfZBKI5QJU-4">
          <mxGeometry relative="1" as="geometry" />
        </mxCell>
        <mxCell id="k9GyUz0--Q45pM5BPgDd-14" value="KEYPRESS_EVENT" style="edgeLabel;html=1;align=center;verticalAlign=middle;resizable=0;points=[];" vertex="1" connectable="0" parent="k9GyUz0--Q45pM5BPgDd-7">
          <mxGeometry x="0.0314" y="-3" relative="1" as="geometry">
            <mxPoint x="16" y="13" as="offset" />
          </mxGeometry>
        </mxCell>
        <mxCell id="k9GyUz0--Q45pM5BPgDd-8" value="CAPS_LOCK_STATE" style="rounded=1;whiteSpace=wrap;html=1;verticalAlign=top;" vertex="1" parent="1">
          <mxGeometry x="270" y="699.38" width="120" height="70" as="geometry" />
        </mxCell>
        <mxCell id="k9GyUz0--Q45pM5BPgDd-12" value="DISCONNECTED_STATE" style="rounded=1;whiteSpace=wrap;html=1;verticalAlign=top;" vertex="1" parent="1">
          <mxGeometry x="570" y="661.25" width="180" height="108.75" as="geometry" />
        </mxCell>
        <mxCell id="k9GyUz0--Q45pM5BPgDd-17" value="" style="ellipse;html=1;shape=startState;fillColor=#000000;strokeColor=#ff0000;" vertex="1" parent="1">
          <mxGeometry x="90" y="640" width="30" height="30" as="geometry" />
        </mxCell>
        <mxCell id="k9GyUz0--Q45pM5BPgDd-18" value="" style="edgeStyle=orthogonalEdgeStyle;html=1;verticalAlign=bottom;endArrow=open;endSize=8;strokeColor=#ff0000;rounded=0;exitX=1;exitY=0.5;exitDx=0;exitDy=0;entryX=0.25;entryY=0;entryDx=0;entryDy=0;" edge="1" parent="1" source="k9GyUz0--Q45pM5BPgDd-17" target="k9GyUz0--Q45pM5BPgDd-6">
          <mxGeometry relative="1" as="geometry">
            <mxPoint x="-50" y="490" as="targetPoint" />
          </mxGeometry>
        </mxCell>
        <mxCell id="k9GyUz0--Q45pM5BPgDd-19" style="edgeStyle=orthogonalEdgeStyle;rounded=0;orthogonalLoop=1;jettySize=auto;html=1;exitX=0;exitY=0.25;exitDx=0;exitDy=0;entryX=1.002;entryY=0.367;entryDx=0;entryDy=0;entryPerimeter=0;" edge="1" parent="1" source="k9GyUz0--Q45pM5BPgDd-12" target="k9GyUz0--Q45pM5BPgDd-4">
          <mxGeometry relative="1" as="geometry" />
        </mxCell>
        <mxCell id="k9GyUz0--Q45pM5BPgDd-20" value="CONNECTED_EVENT" style="edgeLabel;html=1;align=center;verticalAlign=middle;resizable=0;points=[];" vertex="1" connectable="0" parent="k9GyUz0--Q45pM5BPgDd-19">
          <mxGeometry x="-0.0924" y="-1" relative="1" as="geometry">
            <mxPoint y="3" as="offset" />
          </mxGeometry>
        </mxCell>
        <mxCell id="0vHlN4SG5oHoOw6hiQzI-1" value="" style="ellipse;html=1;shape=startState;fillColor=#000000;strokeColor=#ff0000;" vertex="1" parent="1">
          <mxGeometry x="120" y="520" width="30" height="30" as="geometry" />
        </mxCell>
        <mxCell id="0vHlN4SG5oHoOw6hiQzI-2" value="" style="edgeStyle=orthogonalEdgeStyle;html=1;verticalAlign=bottom;endArrow=open;endSize=8;strokeColor=#ff0000;rounded=0;exitX=1;exitY=0.5;exitDx=0;exitDy=0;entryX=0.25;entryY=0;entryDx=0;entryDy=0;" edge="1" parent="1" source="0vHlN4SG5oHoOw6hiQzI-1" target="k9GyUz0--Q45pM5BPgDd-4">
          <mxGeometry relative="1" as="geometry">
            <mxPoint x="200" y="575" as="targetPoint" />
            <mxPoint x="190" y="530" as="sourcePoint" />
          </mxGeometry>
        </mxCell>
        <mxCell id="c1uVocq7qhYfZBKI5QJU-2" style="edgeStyle=orthogonalEdgeStyle;rounded=0;orthogonalLoop=1;jettySize=auto;html=1;entryX=0.5;entryY=0;entryDx=0;entryDy=0;" edge="1" parent="1" source="c1uVocq7qhYfZBKI5QJU-1" target="k9GyUz0--Q45pM5BPgDd-8">
          <mxGeometry relative="1" as="geometry" />
        </mxCell>
        <mxCell id="c1uVocq7qhYfZBKI5QJU-3" value="[key == caps lock]" style="edgeLabel;html=1;align=center;verticalAlign=middle;resizable=0;points=[];" vertex="1" connectable="0" parent="c1uVocq7qhYfZBKI5QJU-2">
          <mxGeometry x="-0.5123" y="1" relative="1" as="geometry">
            <mxPoint x="29" y="-8" as="offset" />
          </mxGeometry>
        </mxCell>
        <mxCell id="c1uVocq7qhYfZBKI5QJU-1" value="" style="rhombus;whiteSpace=wrap;html=1;" vertex="1" parent="1">
          <mxGeometry x="240" y="670" width="20" height="20" as="geometry" />
        </mxCell>
        <mxCell id="c1uVocq7qhYfZBKI5QJU-5" style="edgeStyle=orthogonalEdgeStyle;rounded=0;orthogonalLoop=1;jettySize=auto;html=1;entryX=0.5;entryY=1;entryDx=0;entryDy=0;" edge="1" parent="1" source="c1uVocq7qhYfZBKI5QJU-4" target="k9GyUz0--Q45pM5BPgDd-6">
          <mxGeometry relative="1" as="geometry" />
        </mxCell>
        <mxCell id="c1uVocq7qhYfZBKI5QJU-6" value="[key == caps lock]" style="edgeLabel;html=1;align=center;verticalAlign=middle;resizable=0;points=[];" vertex="1" connectable="0" parent="c1uVocq7qhYfZBKI5QJU-5">
          <mxGeometry x="-0.0945" relative="1" as="geometry">
            <mxPoint x="-5" y="10" as="offset" />
          </mxGeometry>
        </mxCell>
        <mxCell id="c1uVocq7qhYfZBKI5QJU-4" value="" style="rhombus;whiteSpace=wrap;html=1;" vertex="1" parent="1">
          <mxGeometry x="240" y="780" width="20" height="20" as="geometry" />
        </mxCell>
      </root>
    </mxGraphModel>
  </diagram>
  <diagram id="cakdVoxk_8N791RTIs9e" name="ecu_hsm_ctor">
    <mxGraphModel dx="1195" dy="-397" grid="1" gridSize="10" guides="1" tooltips="1" connect="1" arrows="1" fold="1" page="1" pageScale="1" pageWidth="850" pageHeight="1100" math="0" shadow="0">
      <root>
        <mxCell id="0" />
        <mxCell id="1" parent="0" />
        <mxCell id="-m05wftz-HvNKpJfod7k-28" value="ECU_HSM_TOP_STATE" style="rounded=1;whiteSpace=wrap;html=1;verticalAlign=top;" parent="1" vertex="1">
          <mxGeometry x="160" y="1720" width="360" height="200" as="geometry" />
        </mxCell>
        <mxCell id="-m05wftz-HvNKpJfod7k-34" value="STATE1" style="rounded=1;whiteSpace=wrap;html=1;verticalAlign=top;" parent="1" vertex="1">
          <mxGeometry x="215" y="1760" width="250" height="130" as="geometry" />
        </mxCell>
        <mxCell id="-m05wftz-HvNKpJfod7k-13" value="ECU_HSM_TOP_STATE" style="rounded=1;whiteSpace=wrap;html=1;verticalAlign=top;" parent="1" vertex="1">
          <mxGeometry x="240" y="1360" width="200" height="80" as="geometry" />
        </mxCell>
        <mxCell id="-m05wftz-HvNKpJfod7k-14" value="&lt;b&gt;&lt;font style=&quot;font-size: 20px;&quot;&gt;height == 0&lt;/font&gt;&lt;/b&gt;" style="text;html=1;strokeColor=none;fillColor=none;align=center;verticalAlign=middle;whiteSpace=wrap;rounded=0;" parent="1" vertex="1">
          <mxGeometry x="260" y="1320" width="160" height="40" as="geometry" />
        </mxCell>
        <mxCell id="-m05wftz-HvNKpJfod7k-17" value="ECU_HSM_TOP_STATE" style="rounded=1;whiteSpace=wrap;html=1;verticalAlign=top;" parent="1" vertex="1">
          <mxGeometry x="200" y="1520" width="280" height="100" as="geometry" />
        </mxCell>
        <mxCell id="-m05wftz-HvNKpJfod7k-18" value="&lt;b&gt;&lt;font style=&quot;font-size: 20px;&quot;&gt;height == 1&lt;/font&gt;&lt;/b&gt;" style="text;html=1;strokeColor=none;fillColor=none;align=center;verticalAlign=middle;whiteSpace=wrap;rounded=0;" parent="1" vertex="1">
          <mxGeometry x="255" y="1480" width="160" height="40" as="geometry" />
        </mxCell>
        <mxCell id="-m05wftz-HvNKpJfod7k-19" value="STATE1" style="rounded=1;whiteSpace=wrap;html=1;verticalAlign=top;" parent="1" vertex="1">
          <mxGeometry x="275" y="1560" width="120" height="40" as="geometry" />
        </mxCell>
        <mxCell id="-m05wftz-HvNKpJfod7k-29" value="&lt;b&gt;&lt;font style=&quot;font-size: 20px;&quot;&gt;height == 2&lt;/font&gt;&lt;/b&gt;" style="text;html=1;strokeColor=none;fillColor=none;align=center;verticalAlign=middle;whiteSpace=wrap;rounded=0;" parent="1" vertex="1">
          <mxGeometry x="260" y="1680" width="160" height="40" as="geometry" />
        </mxCell>
        <mxCell id="0q3SVmPdDE7SYw20hn_--1" value="STATE2" style="rounded=1;whiteSpace=wrap;html=1;verticalAlign=top;" vertex="1" parent="1">
          <mxGeometry x="280" y="1810" width="120" height="40" as="geometry" />
        </mxCell>
      </root>
    </mxGraphModel>
  </diagram>
  <diagram id="Zjz8NcrwotvmYSMISAam" name="ecu_hsm_start">
    <mxGraphModel dx="989" dy="582" grid="1" gridSize="10" guides="1" tooltips="1" connect="1" arrows="1" fold="1" page="1" pageScale="1" pageWidth="850" pageHeight="1100" math="0" shadow="0">
      <root>
        <mxCell id="0" />
        <mxCell id="1" parent="0" />
        <mxCell id="RawxLP2lBMGZ6qXENlmL-1" value="ECU_HSM_TOP_STATE" style="rounded=1;whiteSpace=wrap;html=1;verticalAlign=top;" vertex="1" parent="1">
          <mxGeometry x="440" y="580" width="290" height="390" as="geometry" />
        </mxCell>
        <mxCell id="RawxLP2lBMGZ6qXENlmL-4" value="S" style="rounded=1;whiteSpace=wrap;html=1;verticalAlign=top;" vertex="1" parent="1">
          <mxGeometry x="480" y="640" width="210" height="290" as="geometry" />
        </mxCell>
        <mxCell id="RawxLP2lBMGZ6qXENlmL-7" value="S1" style="rounded=1;whiteSpace=wrap;html=1;verticalAlign=top;" vertex="1" parent="1">
          <mxGeometry x="525" y="720" width="120" height="180" as="geometry" />
        </mxCell>
        <mxCell id="RawxLP2lBMGZ6qXENlmL-12" value="" style="ellipse;html=1;shape=startState;fillColor=#000000;strokeColor=#ff0000;" vertex="1" parent="1">
          <mxGeometry x="500" y="670" width="30" height="30" as="geometry" />
        </mxCell>
        <mxCell id="RawxLP2lBMGZ6qXENlmL-13" value="" style="edgeStyle=orthogonalEdgeStyle;html=1;verticalAlign=bottom;endArrow=open;endSize=8;strokeColor=#ff0000;rounded=0;exitX=1;exitY=0.5;exitDx=0;exitDy=0;entryX=0.25;entryY=0;entryDx=0;entryDy=0;" edge="1" parent="1" source="RawxLP2lBMGZ6qXENlmL-12" target="RawxLP2lBMGZ6qXENlmL-7">
          <mxGeometry relative="1" as="geometry">
            <mxPoint x="-50" y="490" as="targetPoint" />
          </mxGeometry>
        </mxCell>
        <mxCell id="RawxLP2lBMGZ6qXENlmL-16" value="" style="ellipse;html=1;shape=startState;fillColor=#000000;strokeColor=#ff0000;" vertex="1" parent="1">
          <mxGeometry x="440" y="550" width="30" height="30" as="geometry" />
        </mxCell>
        <mxCell id="RawxLP2lBMGZ6qXENlmL-17" value="" style="edgeStyle=orthogonalEdgeStyle;html=1;verticalAlign=bottom;endArrow=open;endSize=8;strokeColor=#ff0000;rounded=0;exitX=1;exitY=0.5;exitDx=0;exitDy=0;entryX=0.154;entryY=0.002;entryDx=0;entryDy=0;entryPerimeter=0;" edge="1" parent="1" source="RawxLP2lBMGZ6qXENlmL-16" target="RawxLP2lBMGZ6qXENlmL-4">
          <mxGeometry relative="1" as="geometry">
            <mxPoint x="200" y="575" as="targetPoint" />
            <mxPoint x="190" y="530" as="sourcePoint" />
          </mxGeometry>
        </mxCell>
        <mxCell id="RawxLP2lBMGZ6qXENlmL-24" value="S2" style="rounded=1;whiteSpace=wrap;html=1;verticalAlign=top;" vertex="1" parent="1">
          <mxGeometry x="545" y="780" width="80" height="80" as="geometry" />
        </mxCell>
        <mxCell id="RawxLP2lBMGZ6qXENlmL-25" value="" style="ellipse;html=1;shape=startState;fillColor=#000000;strokeColor=#ff0000;" vertex="1" parent="1">
          <mxGeometry x="530" y="730" width="30" height="30" as="geometry" />
        </mxCell>
        <mxCell id="RawxLP2lBMGZ6qXENlmL-26" value="" style="edgeStyle=orthogonalEdgeStyle;html=1;verticalAlign=bottom;endArrow=open;endSize=8;strokeColor=#ff0000;rounded=0;exitX=1;exitY=0.5;exitDx=0;exitDy=0;entryX=0.5;entryY=0;entryDx=0;entryDy=0;" edge="1" parent="1" source="RawxLP2lBMGZ6qXENlmL-25" target="RawxLP2lBMGZ6qXENlmL-24">
          <mxGeometry relative="1" as="geometry">
            <mxPoint x="565" y="730" as="targetPoint" />
            <mxPoint x="540" y="695" as="sourcePoint" />
          </mxGeometry>
        </mxCell>
        <mxCell id="RawxLP2lBMGZ6qXENlmL-27" value="ECU_HSM_TOP_STATE" style="rounded=1;whiteSpace=wrap;html=1;verticalAlign=top;" vertex="1" parent="1">
          <mxGeometry x="420" y="1040" width="290" height="390" as="geometry" />
        </mxCell>
        <mxCell id="RawxLP2lBMGZ6qXENlmL-28" value="S" style="rounded=1;whiteSpace=wrap;html=1;verticalAlign=top;" vertex="1" parent="1">
          <mxGeometry x="460" y="1100" width="210" height="290" as="geometry" />
        </mxCell>
        <mxCell id="RawxLP2lBMGZ6qXENlmL-29" value="S1" style="rounded=1;whiteSpace=wrap;html=1;verticalAlign=top;" vertex="1" parent="1">
          <mxGeometry x="505" y="1180" width="120" height="180" as="geometry" />
        </mxCell>
        <mxCell id="RawxLP2lBMGZ6qXENlmL-32" value="" style="ellipse;html=1;shape=startState;fillColor=#000000;strokeColor=#ff0000;" vertex="1" parent="1">
          <mxGeometry x="395" y="1000" width="30" height="30" as="geometry" />
        </mxCell>
        <mxCell id="RawxLP2lBMGZ6qXENlmL-34" value="S2" style="rounded=1;whiteSpace=wrap;html=1;verticalAlign=top;" vertex="1" parent="1">
          <mxGeometry x="525" y="1240" width="80" height="80" as="geometry" />
        </mxCell>
        <mxCell id="RawxLP2lBMGZ6qXENlmL-35" value="" style="ellipse;html=1;shape=startState;fillColor=#000000;strokeColor=#ff0000;" vertex="1" parent="1">
          <mxGeometry x="510" y="1190" width="30" height="30" as="geometry" />
        </mxCell>
        <mxCell id="RawxLP2lBMGZ6qXENlmL-36" value="" style="edgeStyle=orthogonalEdgeStyle;html=1;verticalAlign=bottom;endArrow=open;endSize=8;strokeColor=#ff0000;rounded=0;exitX=1;exitY=0.5;exitDx=0;exitDy=0;entryX=0.5;entryY=0;entryDx=0;entryDy=0;" edge="1" parent="1" source="RawxLP2lBMGZ6qXENlmL-35" target="RawxLP2lBMGZ6qXENlmL-34">
          <mxGeometry relative="1" as="geometry">
            <mxPoint x="545" y="1190" as="targetPoint" />
            <mxPoint x="520" y="1155" as="sourcePoint" />
          </mxGeometry>
        </mxCell>
        <mxCell id="RawxLP2lBMGZ6qXENlmL-38" value="" style="edgeStyle=orthogonalEdgeStyle;html=1;verticalAlign=bottom;endArrow=open;endSize=8;strokeColor=#ff0000;rounded=0;exitX=1;exitY=0.5;exitDx=0;exitDy=0;entryX=0;entryY=0.5;entryDx=0;entryDy=0;" edge="1" parent="1" source="RawxLP2lBMGZ6qXENlmL-32" target="RawxLP2lBMGZ6qXENlmL-29">
          <mxGeometry relative="1" as="geometry">
            <mxPoint x="367.24" y="1252.5" as="targetPoint" />
            <mxPoint x="342.24" y="1217.5" as="sourcePoint" />
            <Array as="points">
              <mxPoint x="480" y="1015" />
              <mxPoint x="480" y="1270" />
            </Array>
          </mxGeometry>
        </mxCell>
      </root>
    </mxGraphModel>
  </diagram>
</mxfile>
